<svg xmlns="http://www.w3.org/2000/svg" width="1600" height="900" viewBox="0 0 1600 900" role="img">
<defs>
<filter id="shadow" x="-10%" y="-10%" width="120%" height="130%">
<feDropShadow dx="0" dy="8" stdDeviation="12" flood-color="#0f172a" flood-opacity="0.10"/>
</filter>
<style><![CDATA[
text{font-family:-apple-system,BlinkMacSystemFont,"SF Pro Display","Segoe UI",sans-serif;fill:#0f172a}
.title{font-size:48px;font-weight:800}
.subtitle{font-size:22px;fill:#475569}
.card-title{font-size:24px;font-weight:750}
.label{font-size:17px;font-weight:650}
.small{font-size:14px;fill:#64748b}
.metric{font-size:34px;font-weight:800}
]]></style>
</defs>
<rect width="1600" height="900" fill="#f8fafc"/>
<text x="72" y="82" class="title">DPO Preference Data</text>
<text x="72" y="120" class="subtitle">What the model learns to prefer: helpful, local, grounded suggestions over overconfident ones.</text>
<rect x="72" y="156" width="230" height="92" rx="12" fill="#fff" stroke="#dbe4ef"/>
<text x="90" y="190" class="small">Preference pairs</text>
<text x="90" y="228" class="metric" fill="#0f172a">27</text>
<rect x="326" y="156" width="230" height="92" rx="12" fill="#fff" stroke="#dbe4ef"/>
<text x="344" y="190" class="small">Chosen no-ops</text>
<text x="344" y="228" class="metric" fill="#64748b">10</text>
<rect x="580" y="156" width="230" height="92" rx="12" fill="#fff" stroke="#dbe4ef"/>
<text x="598" y="190" class="small">Avg chosen change</text>
<text x="598" y="228" class="metric" fill="#16a34a">6.7</text>
<rect x="834" y="156" width="230" height="92" rx="12" fill="#fff" stroke="#dbe4ef"/>
<text x="852" y="190" class="small">Avg rejected change</text>
<text x="852" y="228" class="metric" fill="#dc2626">45.1</text>
<rect x="1088" y="156" width="230" height="92" rx="12" fill="#fff" stroke="#dbe4ef"/>
<text x="1106" y="190" class="small">Apps covered</text>
<text x="1106" y="228" class="metric" fill="#2563eb">9</text>
<rect x="1342" y="156" width="186" height="92" rx="12" fill="#fff" stroke="#dbe4ef"/>
<text x="1360" y="190" class="small">Categories</text>
<text x="1360" y="228" class="metric" fill="#9333ea">11</text>
<rect x="72" y="286" width="440" height="526" rx="14" fill="#ffffff" filter="url(#shadow)"/>
<text x="100" y="328" class="card-title">Preferred Behavior Mix</text>
<circle cx="292" cy="500" r="118" fill="none" stroke="#e2e8f0" stroke-width="38"/>
<circle cx="292" cy="500" r="118" fill="none" stroke="#2563eb" stroke-width="38" stroke-linecap="round" stroke-dasharray="192.22 549.20" stroke-dashoffset="0.00" transform="rotate(-90 292 500)"/>
<circle cx="292" cy="500" r="118" fill="none" stroke="#16a34a" stroke-width="38" stroke-linecap="round" stroke-dasharray="274.60 466.82" stroke-dashoffset="-192.22" transform="rotate(-90 292 500)"/>
<circle cx="292" cy="500" r="118" fill="none" stroke="#64748b" stroke-width="38" stroke-linecap="round" stroke-dasharray="274.60 466.82" stroke-dashoffset="-466.82" transform="rotate(-90 292 500)"/>
<text x="292" y="494" class="metric" text-anchor="middle">27</text>
<text x="292" y="524" class="small" text-anchor="middle">examples</text>
<rect x="166" y="666" width="16" height="16" rx="4" fill="#2563eb"/>
<text x="192" y="679" class="label">Completion: 7</text>
<rect x="166" y="700" width="16" height="16" rx="4" fill="#16a34a"/>
<text x="192" y="713" class="label">Edit: 10</text>
<rect x="166" y="734" width="16" height="16" rx="4" fill="#64748b"/>
<text x="192" y="747" class="label">Noop: 10</text>
<rect x="552" y="286" width="464" height="526" rx="14" fill="#ffffff" filter="url(#shadow)"/>
<text x="580" y="328" class="card-title">Rejected Behavior Themes</text>
<text x="586" y="370" class="small">unsupported specifics</text>
<rect x="806" y="354" width="116" height="22" rx="8" fill="#e2e8f0"/>
<rect x="806" y="354" width="116" height="22" rx="8" fill="#ea580c"/>
<text x="940" y="370" class="label" text-anchor="end">11</text>
<text x="586" y="406" class="small">invented details</text>
<rect x="806" y="390" width="116" height="22" rx="8" fill="#e2e8f0"/>
<rect x="806" y="390" width="94" height="22" rx="8" fill="#dc2626"/>
<text x="940" y="406" class="label" text-anchor="end">9</text>
<text x="586" y="442" class="small">tone/style overreach</text>
<rect x="806" y="426" width="116" height="22" rx="8" fill="#e2e8f0"/>
<rect x="806" y="426" width="31" height="22" rx="8" fill="#9333ea"/>
<text x="940" y="442" class="label" text-anchor="end">3</text>
<text x="586" y="478" class="small">sensitive leakage</text>
<rect x="806" y="462" width="116" height="22" rx="8" fill="#e2e8f0"/>
<rect x="806" y="462" width="21" height="22" rx="8" fill="#0f766e"/>
<text x="940" y="478" class="label" text-anchor="end">2</text>
<text x="586" y="514" class="small">scope creep</text>
<rect x="806" y="498" width="116" height="22" rx="8" fill="#e2e8f0"/>
<rect x="806" y="498" width="21" height="22" rx="8" fill="#f59e0b"/>
<text x="940" y="514" class="label" text-anchor="end">2</text>
<text x="586" y="778" class="small">Themes are derived from rejection_reason text.</text>
<rect x="1056" y="286" width="472" height="526" rx="14" fill="#ffffff" filter="url(#shadow)"/>
<text x="1084" y="328" class="card-title">Category Coverage</text>
<text x="1090" y="370" class="small">completion: screen grounded reply</text>
<rect x="1310" y="354" width="124" height="18" rx="8" fill="#e2e8f0"/>
<rect x="1310" y="354" width="124" height="18" rx="8" fill="#2563eb"/>
<text x="1452" y="370" class="label" text-anchor="end">4</text>
<text x="1090" y="402" class="small">noop: unsafe</text>
<rect x="1310" y="386" width="124" height="18" rx="8" fill="#e2e8f0"/>
<rect x="1310" y="386" width="93" height="18" rx="8" fill="#64748b"/>
<text x="1452" y="402" class="label" text-anchor="end">3</text>
<text x="1090" y="434" class="small">noop: overeager</text>
<rect x="1310" y="418" width="124" height="18" rx="8" fill="#e2e8f0"/>
<rect x="1310" y="418" width="93" height="18" rx="8" fill="#64748b"/>
<text x="1452" y="434" class="label" text-anchor="end">3</text>
<text x="1090" y="466" class="small">edit: typo</text>
<rect x="1310" y="450" width="124" height="18" rx="8" fill="#e2e8f0"/>
<rect x="1310" y="450" width="93" height="18" rx="8" fill="#16a34a"/>
<text x="1452" y="466" class="label" text-anchor="end">3</text>
<text x="1090" y="498" class="small">edit: multi</text>
<rect x="1310" y="482" width="124" height="18" rx="8" fill="#e2e8f0"/>
<rect x="1310" y="482" width="93" height="18" rx="8" fill="#16a34a"/>
<text x="1452" y="498" class="label" text-anchor="end">3</text>
<text x="1090" y="530" class="small">completion: long obvious</text>
<rect x="1310" y="514" width="124" height="18" rx="8" fill="#e2e8f0"/>
<rect x="1310" y="514" width="62" height="18" rx="8" fill="#2563eb"/>
<text x="1452" y="530" class="label" text-anchor="end">2</text>
<text x="1090" y="562" class="small">edit: grammar</text>
<rect x="1310" y="546" width="124" height="18" rx="8" fill="#e2e8f0"/>
<rect x="1310" y="546" width="62" height="18" rx="8" fill="#16a34a"/>
<text x="1452" y="562" class="label" text-anchor="end">2</text>
<text x="1090" y="594" class="small">edit: punctuation</text>
<rect x="1310" y="578" width="124" height="18" rx="8" fill="#e2e8f0"/>
<rect x="1310" y="578" width="62" height="18" rx="8" fill="#16a34a"/>
<text x="1452" y="594" class="label" text-anchor="end">2</text>
<text x="1090" y="626" class="small">noop: ambiguous</text>
<rect x="1310" y="610" width="124" height="18" rx="8" fill="#e2e8f0"/>
<rect x="1310" y="610" width="62" height="18" rx="8" fill="#64748b"/>
<text x="1452" y="626" class="label" text-anchor="end">2</text>
<text x="1090" y="658" class="small">noop: screen not configured</text>
<rect x="1310" y="642" width="124" height="18" rx="8" fill="#e2e8f0"/>
<rect x="1310" y="642" width="62" height="18" rx="8" fill="#64748b"/>
<text x="1452" y="658" class="label" text-anchor="end">2</text>
<text x="1090" y="778" class="small">Pairs emphasize restraint, grounding, and local edits.</text>
</svg>